<?xml version="1.0" encoding="UTF-8"?>
<svg id="uuid-0cee1bdd-ffb7-4c20-acfc-b53ac847f481" data-name="Calque 2" xmlns="http://www.w3.org/2000/svg" viewBox="0 0 357.61 96.14">
  <g id="uuid-288d299b-707f-46e2-9eed-a891316004a7" data-name="Calque 1">
    <g>
      <path d="m113.01,10.53l-1.56.43-4.3-.75-2.04-1.18c-.47-.75-1.22-1.83-2.26-3.22v-1.07l-1.61-.86c-2.22,0-4.94.91-8.16,2.74-3.9,2.26-6.53,3.56-7.89,3.92l-1.18,1.18v.81l1.18,2.04-.11,2.15-1.5,2.47h-.43l-1.18,1.18v2.04c.29,1.04.43,1.54.43,1.5,0,.86-.4,2.83-1.18,5.91-.11.39-.36,2.24-.75,5.53l-1.94,1.5c-.43,1.4-.97,2.47-1.61,3.22v2.26l-1.61,2.04c-.22.72-.47,1.86-.75,3.44l.43.43c1.25.21,3.08.61,5.48,1.18l3.87-.43c.86-.43,2.18-.93,3.97-1.5l2.42-2.79.32-1.93-.32-.43h-1.67l-1.93,2.04-1.93-.43-.86-1.18-1.5-.43-.43-1.5.75-.43c.25-.57.64-1.07,1.18-1.5,1.72.21,2.65.32,2.79.32s1.34-.25,3.6-.75c1.11.43,2.15,1.07,3.12,1.93v.43l1.18,1.93v2.36c-1.47,1-2.61,1.83-3.44,2.47-1.5,1.22-2.49,2.22-2.95,3.01-1.04.43-2.58.97-4.62,1.61-1.15.29-2.86.68-5.16,1.18-.86.04-2.15.14-3.87.32-.36.36-.82,1.5-1.37,3.44-.56,1.93-1.14,3.28-1.75,4.03v.43l-.86.43.43.32v.43h-.43l.43,5.05c-.36.64-.65,1.72-.86,3.22-.25,1.68-.5,2.83-.75,3.44-.72,1-1.77,2.58-3.17,4.73-.5,1-1.29,2.45-2.36,4.35-.43.57-1.04,1.43-1.83,2.58l-.11.97,1.83.43,2.47-.43,1.99.75h.86c1.04.5,2.22,1.15,3.55,1.93v.86l.75.75.54,1.72-.54,1.83-1.93,1.18h-.86l-1.18-.75-.54-1.4.54-1.4c-.86-.79-3.21-1.33-7.04-1.61l-.75,2.04c-1.68.72-2.86,1.07-3.54,1.07-.07,0-.86-.11-2.36-.32l-2.79.75-2.36-.75-4.3.43-1.99-.86-1.5-1.5-.86-2.36.86-2.79,1.5-1.5,1.67-.43,6.66.75c1.4,1.4,2.94,1.93,4.62,1.61l.43-1.4c-.61-1.07-.86-2.04-.75-2.9,1.07-1.43,1.5-3.67,1.29-6.71l1.18-1.4c.14-.61.21-1.97.21-4.08,0-.43.14-1.07.43-1.93.07-.61.21-1.47.43-2.58.97-1.54,2-4.08,3.12-7.63,0-.14-.04-.4-.11-.78-.07-.38-.11-.64-.11-.78,0-.36.07-.89.21-1.61.61-.61,1-1.65,1.18-3.12l-3.97-2.04c-.36-.07-3.01-.11-7.95-.11-1.25,0-3.11-.12-5.58-.38-2.47-.25-4.35-.38-5.64-.38-2.97,0-4.3.04-3.97.11l-1.18.75v1.61l-1.18,1.61v.75c-.64.86-1.04,1.99-1.18,3.38l.64,2.04c0,2.26-.72,4.26-2.15,6.02h-1.18l-.75,1.5.43,1.61c-.11,1.47-.79,3.15-2.04,5.05v1.93c-.43.86-.97,1.5-1.61,1.93v.86l-2.27.75c-.36.25-1.31,2.63-2.85,7.14l-1.18,1.18-.75,2.26-3.54,2.36c-1.04.29-2.33.29-3.87,0l-.86.43-3.11-1.18-1.5-1.61v-1.07l.75-1.29.75-.32h1.61l1.18.64.32.97,3.44.54.97-1.18c.29-.79.46-1.86.54-3.22.11-1.79.19-2.89.24-3.3.05-.41.3-1.28.73-2.61.36-1.11.54-2,.54-2.69,0-.32-.04-.63-.11-.91l1.93-1.61c.68-2.18.93-3.87.75-5.05.72-1.93,1.88-4.3,3.49-7.09l.54-3.12,2.04-3.28c.14-1.29.21-2.29.21-3.01,0-.14-.11-1.07-.32-2.79l-1.93-.43-.86.43c-3.01.29-5.25.29-6.71,0l-3.87,1.18c-.29.47-1.02,1.06-2.2,1.77-1.47.9-2.35,1.45-2.63,1.67l.54,2.04,1.72.54,1.4-.54.43-1.93,3.12-1.18h1.18c1.11.72,2.15,1.75,3.12,3.12l.32,1.99-.32,1.18-1.18.75h-2.36l-.43.43h-1.93c-2.08-.97-3.58-1.63-4.51-1.99-1.72-.61-3.33-.98-4.83-1.13l-1.18-1.99v-1.61l.75-.32.43-1.61.75-.75v-.43l.75-.75c1.04-.14,2.13-.46,3.28-.97,1.04-.46,2.06-.93,3.06-1.4,1.22-.29,3.04-.82,5.48-1.61h1.18l1.07.43h2.85c.07,0,1.36-.25,3.87-.75,1.43-2.29,2.22-4.12,2.36-5.48l-.43-2.36.64-.54.86-1.5c-.04-.54.04-1.22.21-2.04.25-.97.39-1.59.43-1.88.04-.32.04-.77,0-1.34-.07-.68-.11-1.13-.11-1.34l1.18-.86.32-1.93,1.18-.75,1.61-2.36c-3.44-.18-8.29-.57-14.56-1.18l-.75.43c-.57-.07-4.23-1-10.96-2.79l-4.3,1.18c-.57.9-1.11,1.54-1.61,1.93l.75,3.12,2.04,1.18,5.05.43.43-1.61,1.18-1.18h3.12c2,1.15,3.54,2.72,4.62,4.73l.43,3.97-.43.75c-.86-.21-2.15-.61-3.87-1.18v-1.18l-.75-.75c-.79-.18-2.92-.36-6.39-.54-2.36-.14-4.57-.75-6.61-1.83l-3.49-3.12v-3.87l1.24-2.47c3.33-1.5,7.23-2.26,11.71-2.26,1.43,0,3.65.75,6.66,2.26l1.5-.32c.5.14,2.39.38,5.67.73,3.28.34,5.2.49,5.77.46l1.93.75,2.04-1.18,1.93.43,1.18-1.61c1.32-.32,3.56-1.5,6.71-3.54h3.54c.89,1.04,1.4,2.08,1.5,3.12l-.75.86c-1.93,1.18-3.65,1.83-5.16,1.93l-.81,1.61-.05,2.26-2.35,2.36c-.14,2.01-1,4.92-2.56,8.75-1.46,3.54-2.13,6.66-2.02,9.35l1.07.43,3.54-.32c.57,0,1.38.07,2.42.21,1.18.14,2,.21,2.47.21.5.04,1.23.03,2.17-.03.95-.05,1.62-.08,2.01-.08.57,0,1.94.19,4.11.56,2.17.38,3.66.58,4.48.62.79-.46,1.83-.61,3.11-.43l2.36,1.18,1.61-.43,1.24-1.5h1.93c-.25-1.83-.61-3.4-1.07-4.73l.21-1.29-.64-1.83,1.29-1.4.32-1.77-.43-.86,1.07-.32c1.58-6.3,2.36-10.1,2.36-11.39.46-1.32,1.11-2.51,1.93-3.54l1.18-.75.86-3.12,2.36-1.18,1.5-3.17,3.12-1.61,2.04-2.36c1.29-.57,2.43-1.22,3.44-1.93l.43-1.18,1.99-.75h2.36c3.04-1.58,6.05-2.36,9.02-2.36,2,0,4.22.5,6.66,1.5,2.22,2.51,3.13,5.51,2.74,9.02Zm-57.63,79.17c-2.54-.79-4.19-1.18-4.94-1.18-.47,0-1.16.05-2.09.16-.93.11-1.63.16-2.09.16l-.11,2.26c.36.18,1.72.54,4.08,1.07h1.61l2.69-1.07.86-1.4Z"/>
      <path d="m117.47,68.8l-.43.43-.11,1.18.43,1.07-.43,1.29.21,1.61c-.9,1.93-1.79,3.22-2.69,3.87-.07,0-.34.05-.81.16-.47.11-.73.16-.81.16s-.86-.11-2.36-.32l-.75-.43c-.86.11-2.78-.12-5.77-.67-2.99-.56-5-1.05-6.04-1.48l-1.34.64c-.11.18-.46,1.13-1.05,2.85s-.89,2.65-.89,2.79c0,.32.02.79.05,1.4.04.61.05,1.07.05,1.4l1.61,3.33c1,.36,1.59.54,1.77.54.11,0,.21-.02.32-.05.11-.04.21-.05.32-.05l3.22.32c.82-.21,1.75-.64,2.79-1.29,1.29-.82,2.15-1.32,2.58-1.5l.75-.11c.82-.61,1.47-1.36,1.93-2.26l2.26-.64.43,1.18c-.18.9-2.04,3.12-5.59,6.66-1.18.57-2.85.95-5,1.13-2.36.18-4.03.45-5,.81l-2.42-.43-.32-.32-1.93-.43c-1.83-1.22-3.54-3.29-5.16-6.23-.07-.86-.25-1.9-.54-3.12.18-.64.43-1.99.75-4.03l.43-.43-.21-.32.75-.75.43-1.61c.61-.39,1.11-1.18,1.5-2.36v-3.54l.86-.32.75-2.79c2.61-3.04,5.39-5.01,8.33-5.91.18,0,.45.02.81.05.36.04.63.05.81.05,1.04-.29,1.54-.43,1.5-.43l1.29.54c.43-.07,1.04-.25,1.83-.54.54.04,1.32.23,2.36.59,1.04.36,1.83.56,2.36.59l1.07,1.18,1.07.43.54.75,1.5.64.86.97c.18.39.36,1.02.54,1.88.18.86.36,1.49.54,1.88Zm-6.12,1.29l-.43-.43c0-1.29-.04-2.26-.11-2.9-.43-.86-1.79-2.18-4.08-3.97-1.36,0-3.12.43-5.26,1.29l-.54.86-.97.64-.43.97-.32.32v.86l-.64.54c-.21.43-.39,1.15-.54,2.15h-.43l-.11.97.32,1.29c2.22,1.15,6.19,1.86,11.92,2.15.29-1.11.68-1.79,1.18-2.04l.43-2.69Z"/>
      <path d="m142.01,82.93c.07.61-.18,1.5-.75,2.69l-.75.43-.43.75h-.43l-.75.86-1.61.32c-.11.25-.34.61-.7,1.07-.36.47-.59.82-.7,1.07l-1.29.97-1.61.43-.32.43-1.61.32-.43.43-1.99-.75c-1.61.14-3.19-.14-4.73-.86v-.32c-.29-.43-.54-.72-.75-.86l-.75-.32c-.64-1.15-.97-2.29-.97-3.44l.54-1.29c.57-.39,1.54-1.86,2.9-4.4.89-1.65,1.79-3.31,2.69-5,.07-.86.68-2.83,1.83-5.91v-.75l.43-.43v-.43h.48l.86-1.72-.11-1.72-.43-.43c-1.04.11-1.95.5-2.74,1.18v.43c-1.43.43-2.47.79-3.12,1.07l-.86.86c-.72.11-1.47.36-2.26.75l-.86-.11-.75-.64-.21-.86.21-1.07c1.25-1,2.29-1.58,3.12-1.72,1.15-.21,2.29-.43,3.44-.64.46-.21,1.15-.54,2.04-.97,2.11-.93,4.74-1.4,7.9-1.4.07,0,.34.05.81.16.46.11.73.16.81.16.64.64,1.15,1.43,1.5,2.36h.43c.29.47.43,1.43.43,2.9,0,.14-.11.75-.32,1.83-.25.18-.83.82-1.73,1.93l-1.19.43-.32,1.18h-.43l-.75.75c.11,1.04-.04,2.22-.43,3.54h-.32c-.14.9-.43,1.68-.86,2.36l-1.18,1.07c-.86,2.76-1.25,4.24-1.18,4.46h-.32c-.07.64-.25,1.58-.54,2.79l.11,1.29c1.07-.07,2.55-.65,4.43-1.75,1.88-1.09,3.02-2.12,3.41-3.09l1.29-.75.97-.11.86.43Zm5.26-41.14l-.75.64c-.21,1.58-.75,2.65-1.61,3.22v1.07l-.86.97-.43,1.5-1.4.32c-.14,1.11-.5,2.01-1.07,2.69-.79.47-1.5,1.07-2.15,1.83l-1.4.43-.97-2.26c.07-.79.11-1.97.11-3.54.97-1.58,1.22-3.22.75-4.94.5-1.25,1.15-2.33,1.93-3.22l1.93-.75.43-.43c.57-.29,1.18-.43,1.83-.43h1.72c.79.36,1.43.9,1.93,1.61v1.29Z"/>
      <path d="m202.22,82.39c-.75,1.36-1.34,2.33-1.77,2.9-.79,1-1.65,1.72-2.58,2.15-.68,1.11-1.47,1.9-2.36,2.36l-.75,1.18-2.36.43-2.36-.43-.75-.75v-.43l-1.18-1.18v-.43l-.43-.32-.75-1.61v-1.5c0-.36.07-.75.21-1.18l.86-.75c0-.11-.02-.25-.05-.43-.04-.18-.05-.32-.05-.43,0-1.11.21-2.31.64-3.6h-.43v-.75c0-.21.07-.55.21-.99.14-.45.21-.8.21-1.05.57-1.25,1.61-3.04,3.12-5.37v-1.93l.32-.86h-1.18c-.93.72-2.47,1.75-4.62,3.12h-1.18l-1.61.86v.32c-.97.29-1.75.68-2.36,1.18v.43h-.32v.43l-.43.32v.43l-1.99,2.69c.07.64-.21,1.43-.86,2.36.07.25-.07,1.06-.43,2.42l-.64.75v.43l.54,1.4-.21.97-.75.75c-.5.75-.75,2.47-.75,5.16l-1.61.75h-1.18l-.75-.43-.43-.75-1.18-.43-.75-1.18v-.32l-.43-.43c.25-.97.32-1.86.21-2.69l.43-.86v-.32c.75-.75,1.22-1.43,1.4-2.04v-.75l1.07-1.93c-.21-2.54.18-4.53,1.18-5.96v-1.18l.43-.32c-.32-1.68-.47-2.61-.43-2.79-1.72.43-3.01,1.07-3.87,1.93h-.75l-1.61,2.04h-.43v.32l-.75.86-1.18.32-.75.75v.86h-.43v.75l-.75.43-.43.75-1.5.43-.75.81v.43l-.43.75v.43l-.75.75c.14,1.61,0,2.9-.43,3.87l-.43-.32v.32l-.75,1.18-1.24.75-.43.86v.32h-.75v.43l-.43.43c-.72.04-1.77.18-3.17.43-1.25.21-2.38.32-3.38.32-.68-.18-1.07-.32-1.18-.43-.86-.86-1.4-1.65-1.61-2.36l.43-.75h.75l.43-.32,1.5-.43.64.86.97-.11,1.5-1.18.86-1.93v-1.61l.75-.75.75-2.42.43-.32c.14-2,.54-3.44,1.18-4.3h.75c.43-1.25.59-2.43.48-3.54-.43-.57-.73-1.5-.91-2.79.36-1.04.5-1.68.43-1.93h-.43l-1.18.54-1.93-.11-1.4.97c-.25.04-.76.13-1.53.3-.77.16-1.33.24-1.69.24-.18,0-.45-.02-.81-.05-.36-.04-.63-.05-.81-.05l-.64-1.93,1.07-1.07c.57-.04,1.93-.21,4.07-.54,1.68-.21,3.04-.32,4.07-.32l1.29-.64,1.12.32,1.18-.97,1.71-.43,1.39-.97c1.43-.25,2.21-.36,2.36-.32l1.39.54.21.97-.43,1.18-.43.43c.07.61.3,1.45.7,2.52.39,1.07.63,1.92.7,2.52l1.4.21c1.08-.64,2.76-1.5,5.06-2.58l.75-1.18c2.01-.93,3.77-1.54,5.28-1.83l1.45-1.29,2.37.43.86.75v.75h.32c-.07.43.07,1.11.43,2.04l.75.32.75-.32.86.32c.54-.18,1.18-.57,1.93-1.18v-.32c.46-.11,1.31-.51,2.52-1.21,1.22-.7,1.95-1.23,2.2-1.58.79.07,2.72-.14,5.8-.64l.86.32,1.18,1.18.32.75v3.12c-.25.18-.75,1.22-1.5,3.12-1.54.5-2.47,1.68-2.79,3.54l-.43.43v.75l-.32.32v2.04l.32.75c-.04.61-.61,2.49-1.72,5.64l.43,1.5,1.29-.43c.89-.68,2.22-1.72,3.97-3.12v-.43h.43c1.07.29,1.59.43,1.56.43Z"/>
      <path d="m269.84,35.88l-1.18,2.36-1.18.86-.75,1.18-1.61,1.07-1.83-1.18v-1.5c-1.36-.61-3.52-1.36-6.48-2.26-2.18.21-4.21,1.04-6.11,2.47-.71,1.22-1.04,2.08-.96,2.58l-.64.32c-.32.97-.46,1.5-.43,1.61h-.75l-.43,2.36-1.51,1.93.43.32c-.76.93-1.29,2.51-1.62,4.73l.43.75-.43.86v.32c-.22.14-.84,1.24-1.86,3.3-1.03,2.06-1.59,3.34-1.7,3.84l-.75.75-.86,2.26.11,1.72-.86.75-.32,1.18h-.49l-1.94,2.36c-.4,3.33-1.08,5.66-2.05,6.98v.43l-1.08.75v2.85c-.71.93-1.67,2.44-2.88,4.51l.54,1.4,1.5,1.07,2.79-.75v-.32c.82-.39,1.61-1.04,2.36-1.93.93-1.07,1.59-1.75,1.99-2.04l.43-1.18c.75-.89,2.04-2.2,3.87-3.92.21-.36.46-.89.75-1.61l.86-.75h1.93c.32.97.43,1.75.32,2.36l-1.5,1.24c-.64.97-1.47,2.47-2.47,4.51l-1.5.54-.32,1.61-1.18.32c-.61.61-1,1.15-1.18,1.61-.61.47-1.56,1.11-2.85,1.93-.68.21-1.68.72-3.01,1.5-1.07.21-1.68.32-1.83.32-.21,0-.62-.04-1.21-.13-.59-.09-1.05-.12-1.37-.08l-1.93-1.07-1.07-1.29-.32-2.26c-1.9,1.25-3.4,2.4-4.51,3.44h-1.93l-1.93.75c-2.18-1.15-4.32-1.54-6.39-1.18l-.32-.75-2.36-1.18v-1.61l-1.18-1.5v-.43c.11-2.47.39-5.25.86-8.33l-.32-1.07.86-.86v-.75l.86-.43.32-1.5,1.61-1.18c.72-1.65,1.54-3.15,2.47-4.51.72-.57,1.81-1.36,3.28-2.36l.75-1.4h1.93l1.18-.75c1.32-.36,3.44-.61,6.34-.75l.21,1.29,1.29.21v.43h.43l.32.75h.43v.43c-.57.39-1.52.56-2.85.48-2.08-.11-3.1-.16-3.06-.16-.93,1.4-2.29,2.87-4.08,4.4v1.18l-.43,1.07-1.18.43.32.43v.32c-.21.82-.32,1.22-.32,1.18h-.43c.04.11-.11.79-.43,2.04l-.75.32.43,1.83-.32,1.61-.86,1.02c-.61,1.54-.91,3.15-.91,4.83l.7,2.15.43.43,1.18.32.75-.32c.64,0,1.15-.04,1.5-.11l.97-.54c.54.04,1.47-.41,2.79-1.34,1.68-1.22,2.58-1.84,2.69-1.88.86-1.58,1.47-3.46,1.83-5.64l.75-1.18c.07-1.07.32-2.69.75-4.83l1.29-1.4-.43-1.18c0-2.04.39-3.62,1.18-4.73v-.75h.43c.68-1.61.93-2.79.75-3.54.68-.79,1.15-1.75,1.4-2.9l1.51-1.34.43-2.26,1.18-1.61c-.14-1.15-.21-1.97-.21-2.47,0-.79.21-1.83.65-3.12.75-.89,1.56-2.22,2.42-3.97.93-1.97,1.65-3.29,2.15-3.97.79-.5,1.86-1.4,3.22-2.69l1.61-.32,1.4-1.34,1.4.11,1.18-.97c.61.07,1.51-.04,2.71-.32,1.2-.29,2.05-.43,2.55-.43,2.72,0,5.06.43,7.03,1.29,2.29-.29,4.01-.54,5.15-.75l1.18,1.18.32,1.13Z"/>
      <path d="m290.31,62.36l-.43.75-.75.43v.43l-3.1.32-.43.86v1.07l-.32.43v1.18h-.43v.43l-.65.75-.22.97-.86.64.32.75c-.32.57-.77,1.86-1.35,3.87l-1.62,1.93h.43v.43c-1.19.79-2.12,1.59-2.8,2.42l-.22.64.21.54-.43,3.54h-.32v.75l-.75,1.18.32.75,1.18.32c.93-1.04,2.38-1.93,4.35-2.69l.64,1.18-1.02,2.04c-1.58,1-2.9,2.29-3.97,3.87-2.15.61-3.58.86-4.3.75v-.32h-1.18c-.68-.82-1.47-1.5-2.36-2.04.07-.82-.04-1.97-.32-3.44l-.86-.86h-.32c-1.65,1.4-2.58,2.44-2.79,3.12l-1.93.43-.75,1.18-2.26.86-1.34-.43-1.29.21c-1.33-.82-2.47-1.29-3.44-1.4l-1.5-1.18c-1.07-2.43-1.61-4.19-1.61-5.26,0-.57.14-1.29.43-2.15h.32c.18-.5.43-1.41.75-2.74l-.32-.86v-.43c0-.36.22-.88.67-1.56.45-.68.69-1.2.73-1.56,2.15-1.5,3.44-3.72,3.87-6.66.75-.5,1.34-1.04,1.77-1.61,1.29-.43,2.22-.79,2.79-1.07h.43c.79-.93,1.68-1.72,2.69-2.36l.43-.86,3.54-1.18,3.12.43,1.18.75h1.5l1.61-1.5h1.5l2.04.75,1.56-.43.86.43.32.75,2.79-.32,1.18-.86.75.43,1.18-.43c.32.32.57.86.75,1.61Zm-12.19,1.61l-2.36-.86c-1.43.39-2.72.54-3.87.43l-2.79,1.18-1.5,1.5c-.11.57-.74,2.29-1.91,5.16-1.16,2.87-1.85,4.37-2.07,4.51l-.21,1.18-1.07.97-.21.75.21.75-1.18,1.67v1.4l-.64.64v1.07l-.43.75v.43l-1.13.43v1.5l.32.43,1.67.75c.86-.29,2.15-1.07,3.87-2.36h.43l1.18-.75c.39-.57,1.04-1.36,1.93-2.36v-.32l.75-.43c.79-1.43,1.97-3.53,3.54-6.28v-.43l1.18-1.18c.11-1.18.57-2.47,1.4-3.87-.07-.25.04-.93.32-2.04l.86-.32v-.43l-.21-.43c.21-.5.61-1.25,1.18-2.26h.32l.43-1.18Z"/>
      <path d="m331.45,32.07l-.75.43h-2.35c-.75-.21-1.11-.32-1.07-.32-.79,0-1.78.29-3,.86-1.39.61-2.41.97-3.05,1.07-.54,1-1.32,2.09-2.35,3.28,0,.29.02.72.05,1.29.04.57.05,1,.05,1.29-.46,1.18-1.14,2.22-2.04,3.12l-.32,4.3-.97,1.18v2.79c-1.04.9-1.72,1.83-2.04,2.79l.11,1.61c-.61,1.4-.82,2.42-.64,3.06-.79,1.04-1.36,1.97-1.72,2.79-.07.64-.34,2.02-.8,4.14-.43,1.9-.63,2.99-.59,3.28-.72.57-1.29.97-1.72,1.18l.54,1.18-.86.75c-.25.43-.54,1.29-.86,2.58l-1.07,1.29-.32,3.22-.86,1.56c0,2.4-.9,4.23-2.69,5.48l-1.62.43c-.86.82-2.07,1.86-3.61,3.12-1.51.57-2.95.97-4.31,1.18-.79-.46-1.94-.61-3.45-.43l-.86-.32-1.94-2.04v-1.5l1.62-1.18h.75l.75.75,1.94.86c.72-.32,1.48-.89,2.29-1.72.81-.82,1.48-1.36,2.02-1.61.21-.61.5-1.54.86-2.79,0-1.43.25-3.46.75-6.07h.43v-.86l.75-1.5v-2.04l1.24-1.5c.68-3.44,1.72-5.8,3.12-7.09.07-.82.82-3.46,2.26-7.9.07-.72.29-1.75.64-3.12.75-1.11,1.72-2.83,2.9-5.16l-.32-1.5.43-1.93,1.5-.43.43-.75v-1.5l.75-.43,1.18-2.79c.89-1.04,2.25-2.38,4.08-4.03l1.29.11.96-1.18h.75c.71-.75,1.98-1.36,3.81-1.83,2.11-.5,3.47-.93,4.08-1.29,1.18.29,2.07.39,2.68.32l1.18,1.61v1.93Z"/>
      <path d="m357.61,32.07l-.75.43h-2.35c-.75-.21-1.11-.32-1.07-.32-.79,0-1.78.29-3,.86-1.39.61-2.41.97-3.05,1.07-.54,1-1.32,2.09-2.35,3.28,0,.29.02.72.05,1.29.04.57.05,1,.05,1.29-.46,1.18-1.14,2.22-2.04,3.12l-.32,4.3-.97,1.18v2.79c-1.04.9-1.72,1.83-2.04,2.79l.11,1.61c-.61,1.4-.82,2.42-.64,3.06-.79,1.04-1.36,1.97-1.72,2.79-.07.64-.34,2.02-.8,4.14-.43,1.9-.63,2.99-.59,3.28-.72.57-1.29.97-1.72,1.18l.54,1.18-.86.75c-.25.43-.54,1.29-.86,2.58l-1.07,1.29-.32,3.22-.86,1.56c0,2.4-.9,4.23-2.69,5.48l-1.62.43c-.86.82-2.07,1.86-3.61,3.12-1.51.57-2.95.97-4.31,1.18-.79-.46-1.94-.61-3.45-.43l-.86-.32-1.94-2.04v-1.5l1.62-1.18h.75l.75.75,1.94.86c.72-.32,1.48-.89,2.29-1.72.81-.82,1.48-1.36,2.02-1.61.21-.61.5-1.54.86-2.79,0-1.43.25-3.46.75-6.07h.43v-.86l.75-1.5v-2.04l1.24-1.5c.68-3.44,1.72-5.8,3.12-7.09.07-.82.82-3.46,2.26-7.9.07-.72.29-1.75.64-3.12.75-1.11,1.72-2.83,2.9-5.16l-.32-1.5.43-1.93,1.5-.43.43-.75v-1.5l.75-.43,1.18-2.79c.89-1.04,2.25-2.38,4.08-4.03l1.29.11.96-1.18h.75c.71-.75,1.98-1.36,3.81-1.83,2.11-.5,3.47-.93,4.08-1.29,1.18.29,2.07.39,2.68.32l1.18,1.61v1.93Z"/>
    </g>
  </g>
</svg>